<svg xmlns="http://www.w3.org/2000/svg" width="185" height="185"><circle fill="#fff" cx="92.5" cy="92.5" r="92.5"/><circle fill="#1B4356" cx="92.5" cy="92.5" r="88.479"/><circle fill="#071F2C" cx="92.5" cy="92.5" r="80.435"/><path fill="#25B0D7" d="M152.826 40.217h-120.652c-2.221 0-4.021 1.801-4.021 4.022v12.065h128.695v-12.065c0-2.221-1.801-4.022-4.022-4.022z"/><polygon fill="#C9E0DC" points="48.261,44.239 48.261,52.282 44.239,48.26"/><polygon fill="#C9E0DC" points="52.282,44.239 52.282,52.282 56.305,48.26"/><rect x="60.326" y="44.239" fill="#C9E0DC" width="80.435" height="8.043"/><path fill="#071F2C" d="M28.152 64.348v84.457c0 2.221 1.801 4.022 4.021 4.022h120.652c2.221 0 4.021-1.801 4.021-4.022v-84.457h-128.694z"/><path fill="#C9E0DC" d="M28.152 56.304v84.457c0 2.221 1.801 4.022 4.021 4.022h120.652c2.221 0 4.021-1.801 4.021-4.022v-84.457h-128.694z"/><rect x="28.152" y="56.304" fill="#1B4356" width="128.695" height="36.196"/><rect x="28.152" y="56.304" fill="#071F2C" width="128.695" height="4.022"/><rect x="60.326" y="100.543" fill="#25B0D7" width="32.174" height="8.043"/><rect x="60.326" y="116.63" fill="#25B0D7" width="64.348" height="4.022"/><rect x="60.326" y="124.674" fill="#25B0D7" width="64.348" height="4.022"/><path fill="#071F2C" d="M156.848 27.757c-1.174-1.244-2.384-2.453-3.627-3.627h-121.442c-1.243 1.174-2.453 2.383-3.627 3.627v8.438h128.695v-8.438z"/><rect x="28.152" y="16.087" fill="#E5612A" width="128.695" height="12.065"/><rect x="28.152" y="28.152" fill="#A43B23" width="128.695" height="4.021"/><polygon fill="#A43B23" points="37.09,28.152 35.302,28.152 35.302,24.13 37.09,24.13 37.09,28.152"/><polygon fill="#A43B23" points="45.133,28.152 43.346,28.152 43.346,24.13 45.133,24.13 45.133,28.152"/><polygon fill="#A43B23" points="53.177,28.152 51.389,28.152 51.389,24.13 53.177,24.13 53.177,28.152"/><polygon fill="#A43B23" points="61.22,28.152 59.433,28.152 59.433,20.109 61.22,20.109 61.22,28.152"/><polygon fill="#A43B23" points="69.264,28.152 67.476,28.152 67.476,24.13 69.264,24.13 69.264,28.152"/><polygon fill="#A43B23" points="77.307,28.152 75.52,28.152 75.52,24.13 77.307,24.13 77.307,28.152"/><polygon fill="#A43B23" points="85.351,28.152 83.562,28.152 83.562,24.13 85.351,24.13 85.351,28.152"/><polygon fill="#A43B23" points="93.394,28.152 91.606,28.152 91.606,20.109 93.394,20.109 93.394,28.152"/><polygon fill="#A43B23" points="101.438,28.152 99.649,28.152 99.649,24.13 101.438,24.13 101.438,28.152"/><polygon fill="#A43B23" points="109.48,28.152 107.693,28.152 107.693,24.13 109.48,24.13 109.48,28.152"/><polygon fill="#A43B23" points="117.524,28.152 115.736,28.152 115.736,24.13 117.524,24.13 117.524,28.152"/><polygon fill="#A43B23" points="125.567,28.152 123.78,28.152 123.78,20.109 125.567,20.109 125.567,28.152"/><polygon fill="#A43B23" points="133.611,28.152 131.823,28.152 131.823,24.13 133.611,24.13 133.611,28.152"/><polygon fill="#A43B23" points="141.654,28.152 139.867,28.152 139.867,24.13 141.654,24.13 141.654,28.152"/><polygon fill="#A43B23" points="149.698,28.152 147.91,28.152 147.91,24.13 149.698,24.13 149.698,28.152"/><path fill="#A43B23" d="M59.433 165.844c.592.267 1.188.528 1.787.781v-134.451h-1.787v133.67z"/><path fill="#A43B23" d="M123.78 166.625c.6-.253 1.195-.514 1.787-.781v-133.67h-1.787v134.451z"/><path fill="#A43B23" d="M91.606 172.923l.894.011.894-.011v-140.749h-1.787v140.749z"/></svg>