<svg xmlns="http://www.w3.org/2000/svg" width="185" height="185"><circle fill="#fff" cx="92.5" cy="92.5" r="92.5"/><circle fill="#619540" cx="92.5" cy="92.5" r="88.478"/><circle fill="#071F2C" cx="92.5" cy="92.5" r="80.435"/><path fill="#071F2C" d="M143.377 20.109h-42.833c-2.222 0-4.022 1.8-4.022 4.021v92.5c0 2.221 1.801 4.021 4.022 4.021h75.858c2.967-8.844 4.576-18.311 4.576-28.152.001-29.926-14.86-56.378-37.601-72.39z"/><path fill="#25B0D7" d="M176.956 12.065h-76.412c-2.222 0-4.022 1.8-4.022 4.021v8.043h84.457v-8.043c0-2.22-1.801-4.021-4.023-4.021z"/><path fill="#1B4356" d="M100.544 112.608h76.412c2.222 0 4.022-1.8 4.022-4.021v-84.457h-84.457v84.457c0 2.222 1.801 4.021 4.023 4.021z"/><rect x="104.565" y="32.174" fill="#95C547" width="20.108" height="4.022"/><rect x="104.565" y="84.457" fill="#95C547" width="20.108" height="4.021"/><rect x="104.565" y="40.217" fill="#95C547" width="56.304" height="4.022"/><rect x="104.565" y="76.413" fill="#95C547" width="56.304" height="4.021"/><rect x="104.565" y="68.37" fill="#95C547" width="68.369" height="4.021"/><rect x="116.631" y="48.261" fill="#95C547" width="44.238" height="4.022"/><rect x="116.631" y="56.304" fill="#95C547" width="32.174" height="4.022"/><rect x="116.631" y="92.5" fill="#95C547" width="32.174" height="4.021"/><rect x="116.631" y="100.544" fill="#95C547" width="40.217" height="4.021"/><path fill="#071F2C" d="M69.509 67.552c-13.758 13.758-15.463 35.004-5.117 50.619l-6.257 6.257-2.844-2.844-2.844 2.844-26.438 26.438c5.335 6.073 11.489 11.408 18.29 15.836l25.211-25.212 2.844-2.844-2.844-2.844 6.257-6.258c15.615 10.346 36.861 8.641 50.619-5.117 15.706-15.706 15.706-41.17 0-56.876s-41.171-15.705-56.877.001z"/><rect x="56.754" y="112.505" transform="matrix(-.707 -.707 .707 -.707 19.932 245.33)" fill="#1B4356" width="8.043" height="12.065"/><rect x="62.441" y="118.192" transform="matrix(-.707 -.707 .707 -.707 25.619 259.061)" fill="#071F2C" width="8.043" height="12.065"/><path fill="#25B0D7" d="M65.041 63.083c-15.706 15.706-15.706 41.17 0 56.876l56.876-56.876c-15.706-15.706-41.17-15.706-56.876 0z"/><path fill="#1B4356" d="M121.917 63.083l-56.876 56.876c15.706 15.706 41.17 15.706 56.876 0s15.706-41.17 0-56.876z"/><circle fill="#1B4356" cx="93.479" cy="91.521" r="32.174"/><path fill="#C9E0DC" d="M114.759 115.645c11.167-12.637 10.714-31.943-1.373-44.03s-31.394-12.54-44.03-1.374l.497-.548c-11.675 12.62-11.387 32.314.876 44.578 12.264 12.263 31.959 12.551 44.578.877l-.548.497z"/><rect x="47.633" y="120.792" transform="matrix(.707 .707 -.707 .707 102.553 -1.979)" fill="#C9E0DC" width="12.065" height="4.022"/><rect x="56.165" y="129.323" transform="matrix(.707 .707 -.707 .707 111.08 -5.515)" fill="#25B0D7" width="12.065" height="4.022"/><rect x="13.508" y="154.917" transform="matrix(.707 .707 -.707 .707 116.688 32.146)" fill="#C9E0DC" width="12.065" height="4.022"/><rect x="22.039" y="163.449" transform="matrix(.707 .707 -.707 .707 125.216 28.61)" fill="#25B0D7" width="12.065" height="4.022"/><rect x="30.57" y="117.746" transform="matrix(-.707 -.707 .707 -.707 -36.422 264.643)" fill="#E5612A" width="12.066" height="44.239"/><rect x="39.102" y="126.277" transform="matrix(-.707 -.707 .707 -.707 -27.88 285.246)" fill="#A43B23" width="12.065" height="44.239"/><rect x="76.413" y="76.413" fill="#95C547" width="36.195" height="8.043"/><path fill="#95C547" d="M76.413 100.544h45.79c.518-2.652.695-5.355.541-8.044h-46.331v8.044z"/><g fill="#95C547"><path d="M115.307 115.148l-.502.442-.046.054.548-.496zM88.478 108.587v8.044h25.094c.418-.335.828-.682 1.232-1.04 1.902-2.163 3.459-4.522 4.683-7.004h-31.009z"/></g></svg>