<svg xmlns="http://www.w3.org/2000/svg" width="185" height="197.065"><circle fill="#fff" cx="92.5" cy="104.565" r="92.5"/><circle fill="#95C547" cx="92.5" cy="104.565" r="88.479"/><circle fill="#071F2C" cx="92.5" cy="104.565" r="80.435"/><path fill="#071F2C" d="M172.935 68.37l-.019-.744c-5.309-11.537-13.022-21.739-22.506-29.956-3.046-.957-6.287-1.474-9.649-1.474-17.77 0-32.174 14.405-32.174 32.174 0 17.77 14.404 32.174 32.174 32.174s32.174-14.405 32.174-32.174z"/><path fill="#071F2C" d="M15.552 60.869c5.902 7.042 14.759 11.522 24.666 11.522 17.769 0 32.174-14.405 32.174-32.174 0-7.524-2.591-14.44-6.919-19.92-21.281 6.82-39.053 21.474-49.921 40.572z"/><polygon fill="#C9E0DC" points="139.797,63.769 39.254,35.617 41.182,28.731 141.726,56.884 139.797,63.769"/><polygon fill="#C9E0DC" points="83.241,138.955 77.629,134.524 137.955,58.111 143.567,62.542 83.241,138.955"/><circle fill="#E5612A" cx="140.761" cy="60.326" r="32.174"/><path fill="#A43B23" d="M156.662 32.36c2.673 4.691 4.207 10.115 4.207 15.901 0 17.769-14.404 32.174-32.174 32.174-5.785 0-11.21-1.535-15.9-4.208 5.536 9.717 15.982 16.273 27.966 16.273 17.77 0 32.174-14.405 32.174-32.174 0-11.983-6.556-22.429-16.273-27.966z"/><path fill="#C9E0DC" d="M140.761 60.326c-8.885 0-16.087 7.202-16.087 16.087h32.174c0-8.885-7.202-16.087-16.087-16.087z"/><path fill="#E5612A" d="M144.272 76.413h12.575c0-3.198-.937-6.175-2.545-8.679-2.698 3.542-6.113 6.507-10.03 8.679z"/><circle fill="#C9E0DC" cx="140.761" cy="52.283" r="8.043"/><path fill="#C9E0DC" d="M126.313 177.562l-43.351-43.351-5.056 5.055 41.216 41.216c2.455-.859 4.854-1.835 7.191-2.92z"/><circle fill="#95C547" cx="80.435" cy="136.739" r="32.174"/><path fill="#619540" d="M96.336 108.773c2.673 4.691 4.208 10.115 4.208 15.9 0 17.77-14.405 32.174-32.175 32.174-5.785 0-11.209-1.535-15.9-4.208 5.537 9.717 15.982 16.273 27.966 16.273 17.77 0 32.174-14.405 32.174-32.174-.001-11.983-6.556-22.428-16.273-27.965z"/><path fill="#C9E0DC" d="M80.435 136.739c-8.885 0-16.087 7.202-16.087 16.087h32.174c-.001-8.885-7.203-16.087-16.087-16.087z"/><path fill="#95C547" d="M83.946 152.826h12.575c0-3.198-.937-6.175-2.545-8.679-2.698 3.542-6.112 6.507-10.03 8.679z"/><circle fill="#C9E0DC" cx="80.435" cy="128.696" r="8.043"/><circle fill="#25B0D7" cx="40.218" cy="32.174" r="32.174"/><path fill="#1B4356" d="M56.118 4.208c2.673 4.691 4.208 10.115 4.208 15.901 0 17.769-14.404 32.174-32.174 32.174-5.786 0-11.21-1.535-15.901-4.208 5.537 9.717 15.982 16.273 27.967 16.273 17.769 0 32.174-14.405 32.174-32.174 0-11.984-6.557-22.429-16.274-27.966z"/><path fill="#C9E0DC" d="M40.218 32.174c-8.885 0-16.087 7.203-16.087 16.087h32.174c0-8.885-7.202-16.087-16.087-16.087z"/><path fill="#25B0D7" d="M43.729 48.261h12.576c0-3.198-.937-6.175-2.545-8.679-2.698 3.543-6.114 6.507-10.031 8.679z"/><circle fill="#C9E0DC" cx="40.218" cy="24.13" r="8.043"/></svg>